<?xml version="1.0" standalone="no"?><!DOCTYPE svg PUBLIC "-//W3C//DTD SVG 1.1//EN" "http://www.w3.org/Graphics/SVG/1.1/DTD/svg11.dtd"><svg t="1581048400326" class="icon" viewBox="0 0 1228 1024" version="1.1" xmlns="http://www.w3.org/2000/svg" p-id="4865" xmlns:xlink="http://www.w3.org/1999/xlink" width="239.84375" height="200"><defs><style type="text/css"></style></defs><path d="M17.066667 0h1024v1024H17.066667z" fill="#333333" fill-opacity="0" p-id="4866"></path><path d="M510.506667 401.962667C452.565333 298.965333 390.570667 214.954667 386.048 208.768A336.042667 336.042667 0 0 0 201.002667 442.88c8.789333 0.170667 148.565333 1.834667 309.504-40.917333z m41.728 112.64a469.333333 469.333333 0 0 1 13.184-4.010667 1118.677333 1118.677333 0 0 0-27.178667-57.002667C365.610667 505.301333 199.978667 501.546667 194.133333 501.376c-0.128 3.584-0.298667 7.082667-0.298666 10.666667 0 86.144 32.554667 164.736 86.016 224.085333l-0.213334-0.256s91.733333-162.730667 272.597334-221.269333z m-229.205334 261.674666v-0.170666c-2.474667-1.92-5.12-3.669333-7.594666-5.76 4.522667 3.626667 7.594667 5.930667 7.594666 5.930666zM448.768 186.538667l-0.64 0.170666c0.256-0.085333 0.597333-0.085333 0.597333-0.085333l0.042667-0.085333z m301.696 73.898666A334.08 334.08 0 0 0 529.066667 176.768c-27.264 0-53.674667 3.328-79.018667 9.429333 5.12 6.826667 68.053333 90.410667 125.354667 195.584 126.378667-47.317333 174.122667-119.978667 175.061333-121.344zM529.066667 904.533333a392.533333 392.533333 0 0 1-392.490667-392.490666A392.490667 392.490667 0 0 1 529.066667 119.466667a392.533333 392.533333 0 0 1 392.533333 392.576A392.533333 392.533333 0 0 1 529.066667 904.533333z m57.002666-337.664c-196.736 68.565333-261.717333 206.421333-263.04 209.237334a333.568 333.568 0 0 0 205.994667 71.082666 334.08 334.08 0 0 0 130.858667-26.496c-4.949333-29.397333-24.448-132.096-71.637334-254.592a62.464 62.464 0 0 1-2.176 0.768z m15.104-135.082666c7.850667 15.914667 15.274667 32.170667 22.314667 48.597333 2.517333 5.76 4.864 11.605333 7.253333 17.322667 115.754667-14.592 229.76 10.154667 233.514667 10.922666a334.506667 334.506667 0 0 0-76.245333-209.578666c-0.768 0.981333-54.570667 78.634667-186.837334 132.736z m49.962667 118.826666c43.989333 121.002667 61.824 219.392 65.237333 239.402667a335.274667 335.274667 0 0 0 143.658667-224.853333c-6.656-2.133333-100.522667-31.872-208.896-14.549334z" fill="#333333" p-id="4867"></path></svg>