<?xml version="1.0" standalone="no"?><!DOCTYPE svg PUBLIC "-//W3C//DTD SVG 1.1//EN" "http://www.w3.org/Graphics/SVG/1.1/DTD/svg11.dtd"><svg t="1581048490738" class="icon" viewBox="0 0 1024 1024" version="1.1" xmlns="http://www.w3.org/2000/svg" p-id="7035" xmlns:xlink="http://www.w3.org/1999/xlink" width="200" height="200"><defs><style type="text/css"></style></defs><path d="M512 85.333333a426.666667 426.666667 0 1 0 426.666667 426.666667A426.666667 426.666667 0 0 0 512 85.333333z m0 768a341.333333 341.333333 0 1 1 341.333333-341.333333 341.333333 341.333333 0 0 1-341.333333 341.333333z" fill="#ffffff" p-id="7036" data-spm-anchor-id="a313x.7781069.0.i8" class="selected"></path><path d="M448.853333 502.613333a59.733333 59.733333 0 0 0 47.786667-61.013333c0-42.666667-32.853333-68.266667-82.773333-68.266667H298.666667v277.333334h115.2c55.466667-2.133333 98.133333-30.72 98.133333-80.213334a64.853333 64.853333 0 0 0-63.146667-67.84zM352.426667 412.586667h49.066666c25.6 0 40.533333 13.653333 40.533334 36.266666s-16.213333 37.973333-53.333334 37.973334h-36.266666z m42.666666 194.986666h-42.666666V524.8h52.48c32 0 49.92 16.213333 49.92 42.666667s-17.92 40.106667-61.44 40.106666zM629.333333 439.466667a90.026667 90.026667 0 0 0-97.28 96V554.666667a91.733333 91.733333 0 0 0 99.84 98.56A85.333333 85.333333 0 0 0 725.333333 586.666667h-51.626666a38.4 38.4 0 0 1-42.666667 26.88 45.653333 45.653333 0 0 1-46.506667-50.773334v-5.973333H725.333333v-20.053333a90.453333 90.453333 0 0 0-96-97.28z m42.666667 85.333333h-86.186667a42.666667 42.666667 0 0 1 42.666667-46.506667 42.666667 42.666667 0 0 1 42.666667 46.506667zM565.333333 392.533333h128v21.333334h-128z" fill="#fff" p-id="7037"></path></svg>