<?xml version="1.0" standalone="no"?><!DOCTYPE svg PUBLIC "-//W3C//DTD SVG 1.1//EN" "http://www.w3.org/Graphics/SVG/1.1/DTD/svg11.dtd"><svg t="1581048768336" class="icon" viewBox="0 0 1024 1024" version="1.1" xmlns="http://www.w3.org/2000/svg" p-id="15659" xmlns:xlink="http://www.w3.org/1999/xlink" width="200" height="200"><defs><style type="text/css"></style></defs><path d="M933.341867 354.5088a37.137067 37.137067 0 0 1-37.0688-37.137067 163.6352 163.6352 0 0 0-163.498667-163.4304 37.137067 37.137067 0 0 1 0-74.205866 237.909333 237.909333 0 0 1 237.7728 237.568c0 20.548267-16.657067 37.205333-37.205333 37.205333z" fill="#333333" p-id="15660"></path><path d="M793.053867 354.5088a37.205333 37.205333 0 0 1-37.205334-37.137067 23.074133 23.074133 0 0 0-23.074133-23.074133 37.137067 37.137067 0 1 1 0-74.274133c53.725867 0 97.348267 43.690667 97.348267 97.348266 0 20.48-16.5888 37.137067-37.0688 37.137067zM745.472 464.622933c7.441067-32.426667 4.9152-63.419733-15.018667-92.637866-25.053867-37.137067-62.805333-48.605867-106.0864-48.605867a271.701333 271.701333 0 0 0-70.929066 10.376533c-1.365333-27.989333-10.6496-52.8384-29.9008-72.772266-21.2992-22.050133-49.7664-31.675733-81.032534-31.675734-73.3184 0-167.048533 54.613333-244.9408 135.031467C114.756267 449.672533 67.310933 540.672 67.310933 624.571733 67.310933 773.9392 231.082667 887.466667 443.733333 887.466667c219.477333 0 402.500267-131.072 402.500267-277.162667 0-74.1376-42.734933-119.944533-100.7616-145.681067z m-74.274133 36.317867c5.802667 12.014933 17.476267 15.701333 25.873066 18.295467 24.302933 7.714133 80.896 32.221867 80.896 91.136C777.966933 697.617067 650.786133 819.2 443.733333 819.2c-192.853333 0-308.155733-98.986667-308.155733-194.628267 0-63.351467 39.458133-138.922667 111.0016-212.718933 66.218667-68.4032 144.930133-114.2784 195.925333-114.2784 14.199467 0 24.917333 3.618133 31.9488 10.922667 12.765867 13.175467 14.199467 40.277333 3.8912 74.410666-4.232533 13.653333-0.682667 22.664533 3.072 27.784534a26.4192 26.4192 0 0 0 22.186667 10.4448c7.509333 0 15.018667-2.389333 20.0704-4.5056l0.4096-0.2048c37.546667-16.247467 72.226133-24.7808 100.283733-24.7808 16.861867 0 39.185067 3.208533 49.698134 18.705066 11.264 16.657067 4.983467 42.871467-2.389334 61.781334-1.570133 4.164267-6.3488 16.657067-0.477866 28.808533z" fill="#fff" p-id="15661"></path></svg>